<?xml version="1.0" standalone="no"?>
<!DOCTYPE svg PUBLIC "-//W3C//DTD SVG 20010904//EN"
 "http://www.w3.org/TR/2001/REC-SVG-20010904/DTD/svg10.dtd">
<svg version="1.0" xmlns="http://www.w3.org/2000/svg"
 width="123.000000pt" height="123.000000pt" viewBox="0 0 123.000000 123.000000"
 preserveAspectRatio="xMidYMid meet">
<metadata>
Created by potrace 1.14, written by Peter Selinger 2001-2017
</metadata>
<g transform="translate(0.000000,123.000000) scale(0.100000,-0.100000)"
fill="#000000" stroke="none">
<path d="M505 1174 c-246 -62 -404 -204 -468 -420 -25 -83 -17 -242 17 -329
70 -182 206 -302 403 -356 66 -18 95 -21 188 -16 61 3 130 12 155 21 199 70
345 222 393 408 71 275 -93 565 -376 665 -56 20 -96 26 -182 29 -60 1 -119 1
-130 -2z"/>
</g>
</svg>
